<svg width="36" height="36" viewBox="0 0 36 36" fill="none" xmlns="http://www.w3.org/2000/svg">
<rect x="0.5" y="0.5" width="35" height="35" rx="17.5" stroke="#0055CC"/>
<path d="M16.6794 9C20.3683 9 23.3588 11.9895 23.3588 15.6773C23.3588 17.1929 22.8537 18.5905 22.0027 19.7111L26.7336 24.4461C27.0891 24.8018 27.0888 25.3783 26.7329 25.7337C26.377 26.0891 25.8003 26.0887 25.4448 25.733L20.7144 20.999C19.5934 21.8498 18.1954 22.3547 16.6794 22.3547C12.9905 22.3547 10 19.3651 10 15.6773C10 11.9895 12.9905 9 16.6794 9ZM16.6794 10.821C13.9965 10.821 11.8216 12.9952 11.8216 15.6773C11.8216 18.3594 13.9965 20.5337 16.6794 20.5337C19.3622 20.5337 21.5371 18.3594 21.5371 15.6773C21.5371 12.9952 19.3622 10.821 16.6794 10.821Z" fill="#0055CC"/>
</svg>
