<svg width="17" height="18" viewBox="0 0 17 18" fill="none" xmlns="http://www.w3.org/2000/svg">
<path d="M8.5 17.5C13.1944 17.5 17 13.6944 17 9C17 4.30558 13.1944 0.5 8.5 0.5C3.80558 0.5 0 4.30558 0 9C0 13.6944 3.80558 17.5 8.5 17.5Z" fill="#2AABEE"/>
<path fill-rule="evenodd" clip-rule="evenodd" d="M3.84747 8.91028C6.3254 7.83069 7.97773 7.11896 8.80448 6.77508C11.165 5.79325 11.6555 5.6227 11.9752 5.61706C12.0455 5.61583 12.2028 5.63325 12.3046 5.71589C12.3906 5.78566 12.4143 5.87992 12.4256 5.94608C12.4369 6.01223 12.451 6.16294 12.4398 6.2807C12.3119 7.62475 11.7584 10.8864 11.4768 12.3918C11.3576 13.0287 11.123 13.2423 10.8959 13.2632C10.4023 13.3086 10.0274 12.937 9.54936 12.6236C8.80125 12.1332 8.37861 11.8279 7.65244 11.3494C6.81323 10.7964 7.35725 10.4924 7.83552 9.99567C7.96069 9.86567 10.1355 7.88746 10.1776 7.70801C10.1829 7.68557 10.1878 7.60191 10.1381 7.55773C10.0884 7.51356 10.015 7.52866 9.9621 7.54068C9.88707 7.55771 8.69195 8.34763 6.37675 9.91046C6.03752 10.1434 5.73026 10.2569 5.45496 10.2509C5.15147 10.2444 4.56767 10.0793 4.13367 9.93827C3.60136 9.76524 3.17829 9.67376 3.21513 9.37989C3.23432 9.22683 3.4451 9.07029 3.84747 8.91028Z" fill="white"/>
</svg>
